<?xml version="1.0" encoding="utf-8"?>
<!-- Generator: Adobe Illustrator 18.0.0, SVG Export Plug-In . SVG Version: 6.00 Build 0)  -->
<!DOCTYPE svg PUBLIC "-//W3C//DTD SVG 1.1//EN" "http://www.w3.org/Graphics/SVG/1.1/DTD/svg11.dtd">
<svg version="1.1" id="Layer_1" xmlns="http://www.w3.org/2000/svg" xmlns:xlink="http://www.w3.org/1999/xlink" x="0px" y="0px"
	 width="48px" height="64px" viewBox="0 0 48 64" enable-background="new 0 0 48 64" xml:space="preserve">
<g>
	<path fill="#A8D3B6" d="M46,20H36v-8c0-6.6-5.4-12-12-12S12,5.4,12,12v8H2c-1.1,0-2,0.9-2,2v38c0,2.2,1.8,4,4,4h40c2.2,0,4-1.8,4-4
		V22C48,20.9,47.1,20,46,20z M14,12c0-5.5,4.5-10,10-10s10,4.5,10,10v12h-2V12c0-4.4-3.6-8-8-8s-8,3.6-8,8v12h-2V12z M30,12v8H18v-8
		c0-3.3,2.7-6,6-6S30,8.7,30,12z M46,60c0,1.1-0.9,2-2,2H4c-1.1,0-2-0.9-2-2v-2h44V60z M46,56H2V23c0-0.6,0.4-1,1-1h9v3
		c0,0.6,0.4,1,1,1h4c0.6,0,1-0.4,1-1v-3h12v3c0,0.6,0.4,1,1,1h4c0.6,0,1-0.4,1-1v-3h9c0.6,0,1,0.4,1,1V56z"/>
	<path fill="#A8D3B6" d="M28,34c-1.1,0-2.1,0.4-2.8,1.2L24,36.3l-1.2-1.2C22.1,34.4,21.1,34,20,34c-2.2,0-4,1.8-4,4
		c0,1.1,0.7,2.1,1.4,2.9l5.9,5.9c0.4,0.4,1,0.4,1.4,0l5.8-5.8c0.7-0.7,1.5-1.8,1.5-2.9C32,35.8,30.2,34,28,34z M29.2,39.4L24,44.6
		l-5.2-5.2C18.5,39.1,18,38.6,18,38c0-1.1,0.9-2,2-2c0.6,0,1.1,0.2,1.4,0.6l1.9,1.9c0.4,0.4,1,0.4,1.4,0l1.9-1.9
		C27,36.2,27.5,36,28,36c1.1,0,2,0.9,2,2C30,38.6,29.5,39.1,29.2,39.4z"/>
</g>
</svg>
