<?xml version="1.0" encoding="utf-8"?>
<!-- Generator: Adobe Illustrator 18.0.0, SVG Export Plug-In . SVG Version: 6.00 Build 0)  -->
<!DOCTYPE svg PUBLIC "-//W3C//DTD SVG 1.1//EN" "http://www.w3.org/Graphics/SVG/1.1/DTD/svg11.dtd">
<svg version="1.1" id="Layer_1" xmlns="http://www.w3.org/2000/svg" xmlns:xlink="http://www.w3.org/1999/xlink" x="0px" y="0px"
	 width="64px" height="48px" viewBox="0 0 64 48" enable-background="new 0 0 64 48" xml:space="preserve">
<path fill="#A8D3B6" d="M60,0H4C1.8,0,0,1.8,0,4v40c0,2.2,1.8,4,4,4h56c2.2,0,4-1.8,4-4V4C64,1.8,62.2,0,60,0z M4,2h56
	c1.1,0,2,0.9,2,2v2.5L32,28.8L2,6.5V4C2,2.9,2.9,2,4,2z M60,46H4c-1.1,0-2-0.9-2-2v-2.8l18.6-13.4c0.4-0.3,0.5-0.9,0.2-1.4
	c-0.3-0.4-0.9-0.5-1.4-0.2L2,38.7V9l29.4,21.8c0.2,0.1,0.4,0.2,0.6,0.2s0.4-0.1,0.6-0.2L62,9v29.8L44.6,26.2
	c-0.4-0.3-1.1-0.2-1.4,0.2c-0.3,0.4-0.2,1.1,0.2,1.4L62,41.2V44C62,45.1,61.1,46,60,46z"/>
</svg>
